HIERARCHY
ROOT mixamorig:Hips
{
	OFFSET -0.000008 104.274872 1.554316
	CHANNELS 6 Xposition Yposition Zposition Xrotation Yrotation Zrotation
	JOINT mixamorig:Spine
	{
		OFFSET -0.000005 10.181595 0.131519
		CHANNELS 6 Xposition Yposition Zposition Xrotation Yrotation Zrotation
		JOINT mixamorig:Spine1
		{
			OFFSET -0.000000 9.893959 -1.470707
			CHANNELS 6 Xposition Yposition Zposition Xrotation Yrotation Zrotation
			JOINT mixamorig:Spine2
			{
				OFFSET -0.000000 9.220757 -1.370641
				CHANNELS 6 Xposition Yposition Zposition Xrotation Yrotation Zrotation
				JOINT mixamorig:Neck
				{
					OFFSET 0.000001 16.740417 -2.049036
					CHANNELS 6 Xposition Yposition Zposition Xrotation Yrotation Zrotation
					JOINT mixamorig:Head
					{
						OFFSET 0.000000 9.617874 1.685006
						CHANNELS 6 Xposition Yposition Zposition Xrotation Yrotation Zrotation
						JOINT mixamorig:HeadTop_End
						{
							OFFSET 0.000002 22.037354 7.501101
							CHANNELS 6 Xposition Yposition Zposition Xrotation Yrotation Zrotation
							End Site
							{
								OFFSET 0.000168 2310.654297 -282.823242
							}
						}
					}
				}
				JOINT mixamorig:RightShoulder
				{
					OFFSET -4.569970 11.014908 -2.160885
					CHANNELS 6 Xposition Yposition Zposition Xrotation Yrotation Zrotation
					JOINT mixamorig:RightArm
					{
						OFFSET -10.592851 -0.524811 -2.232101
						CHANNELS 6 Xposition Yposition Zposition Xrotation Yrotation Zrotation
						JOINT mixamorig:RightForeArm
						{
							OFFSET -27.841511 0.000031 -0.000004
							CHANNELS 6 Xposition Yposition Zposition Xrotation Yrotation Zrotation
							JOINT mixamorig:RightHand
							{
								OFFSET -28.328831 -0.000015 0.000015
								CHANNELS 6 Xposition Yposition Zposition Xrotation Yrotation Zrotation
								JOINT mixamorig:RightHandThumb1
								{
									OFFSET -2.464806 -1.573990 2.681852
									CHANNELS 6 Xposition Yposition Zposition Xrotation Yrotation Zrotation
									JOINT mixamorig:RightHandThumb2
									{
										OFFSET -3.215179 -1.872803 1.924282
										CHANNELS 6 Xposition Yposition Zposition Xrotation Yrotation Zrotation
										JOINT mixamorig:RightHandThumb3
										{
											OFFSET -2.654831 -1.527969 1.512609
											CHANNELS 6 Xposition Yposition Zposition Xrotation Yrotation Zrotation
											JOINT mixamorig:RightHandThumb4
											{
												OFFSET -2.018814 -1.152008 1.108052
												CHANNELS 6 Xposition Yposition Zposition Xrotation Yrotation Zrotation
												End Site
												{
													OFFSET -188.809540 -114.533607 132.431396
												}
											}
										}
									}
								}
								JOINT mixamorig:RightHandIndex1
								{
									OFFSET -9.108284 -0.517868 2.259835
									CHANNELS 6 Xposition Yposition Zposition Xrotation Yrotation Zrotation
									JOINT mixamorig:RightHandIndex2
									{
										OFFSET -3.699989 0.000000 0.001215
										CHANNELS 6 Xposition Yposition Zposition Xrotation Yrotation Zrotation
										JOINT mixamorig:RightHandIndex3
										{
											OFFSET -2.850006 0.000031 -0.000522
											CHANNELS 6 Xposition Yposition Zposition Xrotation Yrotation Zrotation
											JOINT mixamorig:RightHandIndex4
											{
												OFFSET -2.772186 -0.000015 -0.000020
												CHANNELS 6 Xposition Yposition Zposition Xrotation Yrotation Zrotation
												End Site
												{
													OFFSET -277.218445 0.000000 -0.050231
												}
											}
										}
									}
								}
								JOINT mixamorig:RightHandMiddle1
								{
									OFFSET -9.532516 -0.000031 -0.000023
									CHANNELS 6 Xposition Yposition Zposition Xrotation Yrotation Zrotation
									JOINT mixamorig:RightHandMiddle2
									{
										OFFSET -3.700005 -0.000015 0.003713
										CHANNELS 6 Xposition Yposition Zposition Xrotation Yrotation Zrotation
										JOINT mixamorig:RightHandMiddle3
										{
											OFFSET -2.949974 0.000015 -0.002054
											CHANNELS 6 Xposition Yposition Zposition Xrotation Yrotation Zrotation
											JOINT mixamorig:RightHandMiddle4
											{
												OFFSET -2.946640 0.000000 -0.000156
												CHANNELS 6 Xposition Yposition Zposition Xrotation Yrotation Zrotation
												End Site
												{
													OFFSET -294.664337 0.000000 -0.113670
												}
											}
										}
									}
								}
								JOINT mixamorig:RightHandRing1
								{
									OFFSET -9.103600 -0.043076 -1.865134
									CHANNELS 6 Xposition Yposition Zposition Xrotation Yrotation Zrotation
									JOINT mixamorig:RightHandRing2
									{
										OFFSET -3.379288 0.000000 -0.001055
										CHANNELS 6 Xposition Yposition Zposition Xrotation Yrotation Zrotation
										JOINT mixamorig:RightHandRing3
										{
											OFFSET -2.889687 -0.000015 0.000379
											CHANNELS 6 Xposition Yposition Zposition Xrotation Yrotation Zrotation
											JOINT mixamorig:RightHandRing4
											{
												OFFSET -2.638809 -0.000015 0.000941
												CHANNELS 6 Xposition Yposition Zposition Xrotation Yrotation Zrotation
												End Site
												{
													OFFSET -263.880371 0.000000 0.516020
												}
											}
										}
									}
								}
								JOINT mixamorig:RightHandPinky1
								{
									OFFSET -8.076683 -0.486710 -3.806280
									CHANNELS 6 Xposition Yposition Zposition Xrotation Yrotation Zrotation
									JOINT mixamorig:RightHandPinky2
									{
										OFFSET -3.600014 -0.000015 -0.003747
										CHANNELS 6 Xposition Yposition Zposition Xrotation Yrotation Zrotation
										JOINT mixamorig:RightHandPinky3
										{
											OFFSET -2.099983 0.000000 -0.005739
											CHANNELS 6 Xposition Yposition Zposition Xrotation Yrotation Zrotation
											JOINT mixamorig:RightHandPinky4
											{
												OFFSET -2.115768 -0.000031 -0.003680
												CHANNELS 6 Xposition Yposition Zposition Xrotation Yrotation Zrotation
												End Site
												{
													OFFSET -211.577087 0.000000 -0.350686
												}
											}
										}
									}
								}
							}
						}
					}
				}
				JOINT mixamorig:LeftShoulder
				{
					OFFSET 4.570447 11.014725 -2.160855
					CHANNELS 6 Xposition Yposition Zposition Xrotation Yrotation Zrotation
					JOINT mixamorig:LeftArm
					{
						OFFSET 10.592371 -0.524597 -2.232119
						CHANNELS 6 Xposition Yposition Zposition Xrotation Yrotation Zrotation
						JOINT mixamorig:LeftForeArm
						{
							OFFSET 27.841532 -0.000031 0.000026
							CHANNELS 6 Xposition Yposition Zposition Xrotation Yrotation Zrotation
							JOINT mixamorig:LeftHand
							{
								OFFSET 28.328846 -0.000061 0.000022
								CHANNELS 6 Xposition Yposition Zposition Xrotation Yrotation Zrotation
								JOINT mixamorig:LeftHandThumb1
								{
									OFFSET 2.466141 -1.576172 2.681732
									CHANNELS 6 Xposition Yposition Zposition Xrotation Yrotation Zrotation
									JOINT mixamorig:LeftHandThumb2
									{
										OFFSET 3.217812 -1.872070 1.916482
										CHANNELS 6 Xposition Yposition Zposition Xrotation Yrotation Zrotation
										JOINT mixamorig:LeftHandThumb3
										{
											OFFSET 2.656029 -1.528778 1.514513
											CHANNELS 6 Xposition Yposition Zposition Xrotation Yrotation Zrotation
											JOINT mixamorig:LeftHandThumb4
											{
												OFFSET 2.020889 -1.154053 1.115139
												CHANNELS 6 Xposition Yposition Zposition Xrotation Yrotation Zrotation
												End Site
												{
													OFFSET 190.885437 -115.081749 130.048782
												}
											}
										}
									}
								}
								JOINT mixamorig:LeftHandIndex1
								{
									OFFSET 9.109314 -0.518021 2.259871
									CHANNELS 6 Xposition Yposition Zposition Xrotation Yrotation Zrotation
									JOINT mixamorig:LeftHandIndex2
									{
										OFFSET 3.699989 0.000000 -0.000322
										CHANNELS 6 Xposition Yposition Zposition Xrotation Yrotation Zrotation
										JOINT mixamorig:LeftHandIndex3
										{
											OFFSET 2.850006 0.000000 0.000352
											CHANNELS 6 Xposition Yposition Zposition Xrotation Yrotation Zrotation
											JOINT mixamorig:LeftHandIndex4
											{
												OFFSET 2.774864 -0.000031 -0.000027
												CHANNELS 6 Xposition Yposition Zposition Xrotation Yrotation Zrotation
												End Site
												{
													OFFSET 277.486267 0.000000 -0.009857
												}
											}
										}
									}
								}
								JOINT mixamorig:LeftHandMiddle1
								{
									OFFSET 9.533394 0.000061 0.000044
									CHANNELS 6 Xposition Yposition Zposition Xrotation Yrotation Zrotation
									JOINT mixamorig:LeftHandMiddle2
									{
										OFFSET 3.699989 -0.000015 -0.000231
										CHANNELS 6 Xposition Yposition Zposition Xrotation Yrotation Zrotation
										JOINT mixamorig:LeftHandMiddle3
										{
											OFFSET 2.949997 -0.000015 -0.000059
											CHANNELS 6 Xposition Yposition Zposition Xrotation Yrotation Zrotation
											JOINT mixamorig:LeftHandMiddle4
											{
												OFFSET 2.952896 0.000031 0.000063
												CHANNELS 6 Xposition Yposition Zposition Xrotation Yrotation Zrotation
												End Site
												{
													OFFSET 295.289337 0.000000 0.022810
												}
											}
										}
									}
								}
								JOINT mixamorig:LeftHandRing1
								{
									OFFSET 9.104523 -0.042999 -1.865074
									CHANNELS 6 Xposition Yposition Zposition Xrotation Yrotation Zrotation
									JOINT mixamorig:LeftHandRing2
									{
										OFFSET 3.150009 -0.000031 0.000043
										CHANNELS 6 Xposition Yposition Zposition Xrotation Yrotation Zrotation
										JOINT mixamorig:LeftHandRing3
										{
											OFFSET 2.949982 -0.000015 0.000040
											CHANNELS 6 Xposition Yposition Zposition Xrotation Yrotation Zrotation
											JOINT mixamorig:LeftHandRing4
											{
												OFFSET 2.644348 0.000000 0.000057
												CHANNELS 6 Xposition Yposition Zposition Xrotation Yrotation Zrotation
												End Site
												{
													OFFSET 264.434631 0.000000 0.012105
												}
											}
										}
									}
								}
								JOINT mixamorig:LeftHandPinky1
								{
									OFFSET 8.077789 -0.486847 -3.806259
									CHANNELS 6 Xposition Yposition Zposition Xrotation Yrotation Zrotation
									JOINT mixamorig:LeftHandPinky2
									{
										OFFSET 3.599953 0.000031 0.014727
										CHANNELS 6 Xposition Yposition Zposition Xrotation Yrotation Zrotation
										JOINT mixamorig:LeftHandPinky3
										{
											OFFSET 2.100021 0.000015 0.007705
											CHANNELS 6 Xposition Yposition Zposition Xrotation Yrotation Zrotation
											JOINT mixamorig:LeftHandPinky4
											{
												OFFSET 2.125504 0.000031 0.007517
												CHANNELS 6 Xposition Yposition Zposition Xrotation Yrotation Zrotation
												End Site
												{
													OFFSET 212.550781 0.000000 0.625752
												}
											}
										}
									}
								}
							}
						}
					}
				}
			}
		}
	}
	JOINT mixamorig:RightUpLeg
	{
		OFFSET -8.207787 -6.751648 -1.599560
		CHANNELS 6 Xposition Yposition Zposition Xrotation Yrotation Zrotation
		JOINT mixamorig:RightLeg
		{
			OFFSET -0.000002 -44.370117 0.345942
			CHANNELS 6 Xposition Yposition Zposition Xrotation Yrotation Zrotation
			JOINT mixamorig:RightFoot
			{
				OFFSET 0.000003 -44.423679 -3.043532
				CHANNELS 6 Xposition Yposition Zposition Xrotation Yrotation Zrotation
				JOINT mixamorig:RightToeBase
				{
					OFFSET -0.000002 -8.728671 10.710558
					CHANNELS 6 Xposition Yposition Zposition Xrotation Yrotation Zrotation
					JOINT mixamorig:RightToe_End
					{
						OFFSET -0.000001 -0.000679 9.278119
						CHANNELS 6 Xposition Yposition Zposition Xrotation Yrotation Zrotation
						End Site
						{
							OFFSET 0.000000 -0.067690 927.812134
						}
					}
				}
			}
		}
	}
	JOINT mixamorig:LeftUpLeg
	{
		OFFSET 8.207793 -6.751686 -1.599556
		CHANNELS 6 Xposition Yposition Zposition Xrotation Yrotation Zrotation
		JOINT mixamorig:LeftLeg
		{
			OFFSET -0.000004 -44.370014 0.346954
			CHANNELS 6 Xposition Yposition Zposition Xrotation Yrotation Zrotation
			JOINT mixamorig:LeftFoot
			{
				OFFSET -0.000001 -44.423672 -3.044401
				CHANNELS 6 Xposition Yposition Zposition Xrotation Yrotation Zrotation
				JOINT mixamorig:LeftToeBase
				{
					OFFSET -0.000002 -8.728669 10.710558
					CHANNELS 6 Xposition Yposition Zposition Xrotation Yrotation Zrotation
					JOINT mixamorig:LeftToe_End
					{
						OFFSET -0.000003 -0.000679 9.278133
						CHANNELS 6 Xposition Yposition Zposition Xrotation Yrotation Zrotation
						End Site
						{
							OFFSET 0.000000 -0.068021 927.813477
						}
					}
				}
			}
		}
	}
}
MOTION
Frames: 3
Frame Time: 0.033333
0.000006 104.270477 1.554256 0.000010 0.000003 -0.000113 -0.000005 10.181587 0.131522 0.000001 -0.000003 0.000084 -0.000000 9.893967 -1.470711 0.000001 0.000000 -0.000000 -0.000000 9.220802 -1.370642 0.000000 -0.000000 -0.000000 0.000001 16.740433 -2.049030 0.000000 -0.000000 -0.000000 0.000000 9.617859 1.685014 0.000000 0.000000 0.000000 0.000002 22.037384 7.501101 0.000000 -0.000000 0.000000 -4.569968 11.014880 -2.160881 0.000008 0.000001 -0.000038 -10.592876 -0.524696 -2.231997 70.176232 12.805739 -9.015063 -27.841511 0.000014 0.000547 -52.515559 116.688031 77.327795 -28.328827 0.000007 0.000027 -0.000320 -0.000045 0.000006 -2.464434 -1.573892 2.682377 -34.054418 -155.218726 19.623694 -3.215289 -1.872620 1.924655 157.105170 30.624502 -3.345210 -2.654961 -1.527884 1.513075 144.711300 27.061280 -41.228422 -2.018818 -1.152001 1.108076 -0.000002 0.000006 0.000002 -9.108393 -0.517554 2.260140 105.358550 15.585539 -20.414322 -3.700062 0.000313 0.001549 102.425940 12.445600 -15.424271 -2.850070 0.000372 -0.000224 100.750693 9.093110 -10.970419 -2.772148 -0.000013 -0.000020 -0.000000 -0.000000 0.000000 -9.532589 0.000280 0.000251 97.712488 13.855693 -15.993762 -3.700060 0.000329 0.003982 97.434274 10.718409 -12.091352 -2.950055 0.000353 -0.001797 97.430955 9.398361 -10.688774 -2.946646 0.000001 -0.000155 0.000003 0.000000 -0.000000 -9.103696 -0.042737 -1.864855 96.755613 14.352008 -16.081284 -3.379311 0.000308 -0.000780 97.998277 8.750097 -10.078929 -2.889755 0.000374 0.000674 100.707540 5.894260 -7.164566 -2.638816 -0.000020 0.000939 -0.000000 -0.000000 -0.000000 -8.076763 -0.486378 -3.806016 88.779291 14.783157 -14.330562 -3.600037 0.000287 -0.003498 92.173430 7.403523 -7.325447 -2.100033 0.000332 -0.005474 95.195413 3.611843 -3.721790 -2.115772 -0.000043 -0.003677 0.000003 0.000001 -0.000005 4.570446 11.014691 -2.160851 -0.000018 0.000010 -0.000021 10.592359 -0.524540 -2.232277 71.823674 12.943449 -9.392481 27.841854 0.000115 -0.000218 107.127399 -63.186251 79.596368 28.328840 -0.000028 0.000023 0.000020 -0.000088 -0.000000 2.465971 -1.576159 2.681910 -41.177226 161.195538 -5.803009 3.217833 -1.871782 1.916397 158.138140 -27.893290 17.942055 2.656097 -1.528655 1.514463 139.449992 -27.911291 47.407435 2.020876 -1.154051 1.115156 0.000001 0.000004 0.000002 9.109366 -0.517844 2.259743 87.762439 -15.290598 14.699535 3.700032 0.000170 -0.000474 85.700576 -14.967383 13.911427 2.850054 0.000181 0.000201 84.757511 -12.832143 11.715622 2.774866 -0.000029 -0.000026 -0.000000 -0.000000 -0.000001 9.533458 0.000242 -0.000100 87.989133 -14.319105 13.821631 3.700063 0.000176 -0.000380 89.868344 -13.780652 13.746602 2.950058 0.000184 -0.000201 89.864355 -16.673376 16.637564 2.952867 -0.000003 0.000067 0.000001 -0.000001 0.000003 9.104574 -0.042843 -1.865230 87.427200 -13.639814 13.047789 3.150053 0.000202 -0.000102 93.268214 -13.713224 14.512243 2.950035 0.000200 -0.000072 94.722156 -14.665567 15.913400 2.644329 0.000034 0.000055 -0.000002 0.000001 0.000002 8.077833 -0.486729 -3.806406 74.995395 -15.918657 12.699933 3.600007 0.000182 0.014573 77.677419 -13.408653 11.226959 2.100038 0.000175 0.007554 82.023694 -11.877698 10.758502 2.125491 -0.000016 0.007512 0.000001 0.000004 -0.000001 -8.207786 -6.751667 -1.599560 -0.077001 -0.000003 0.000080 -0.000002 -44.370110 0.345938 0.153719 -0.000000 -0.000000 0.000000 -44.423679 -3.043532 -0.076700 0.000000 -0.000002 -0.000006 -8.728667 10.710559 -0.000009 -0.000000 -0.000000 -0.000001 -0.000679 9.278123 0.000000 -0.000000 -0.000000 8.207792 -6.751710 -1.599556 -0.074518 -0.000003 0.000081 -0.000002 -44.370014 0.346960 0.148822 0.000002 0.000000 -0.000001 -44.423664 -3.044403 -0.074314 0.000000 -0.000002 -0.000004 -8.728671 10.710558 0.000007 -0.000000 -0.000000 0.000000 -0.000680 9.278137 -0.000000 0.000000 -0.000001 
0.000006 104.270477 1.554256 0.000010 0.000003 -0.000113 -0.000005 10.181587 0.131522 0.000001 -0.000003 0.000084 -0.000000 9.893967 -1.470711 0.000001 0.000000 -0.000000 -0.000000 9.220802 -1.370642 0.000000 -0.000000 -0.000000 0.000001 16.740433 -2.049030 0.000000 -0.000000 -0.000000 0.000000 9.617859 1.685014 0.000000 0.000000 0.000000 0.000002 22.037384 7.501101 0.000000 -0.000000 0.000000 -4.569968 11.014880 -2.160881 0.000008 0.000001 -0.000038 -10.592884 -0.524726 -2.231968 69.329391 18.697353 -12.989681 -27.841511 0.000009 0.000558 -48.089811 112.689372 67.654588 -28.328838 0.000009 0.000025 -0.000319 -0.000046 0.000008 -2.464412 -1.573939 2.682373 -28.944098 -147.708879 25.489745 -3.215266 -1.872537 1.924625 152.959190 34.235271 22.370645 -2.654952 -1.527863 1.513079 151.003065 26.291473 -35.806536 -2.018827 -1.152003 1.108054 -0.000000 -0.000006 0.000002 -9.108369 -0.517570 2.260192 110.726389 15.203012 -21.934980 -3.700042 0.000308 0.001571 108.849713 10.456898 -14.549155 -2.850067 0.000386 -0.000212 108.581764 6.823883 -9.481564 -2.772165 -0.000002 -0.000020 0.000000 0.000000 0.000001 -9.532574 0.000286 0.000291 107.146585 12.223617 -16.696650 -3.700047 0.000345 0.004014 104.899261 7.813195 -10.036024 -2.950043 0.000349 -0.001778 103.567101 7.018122 -8.897833 -2.946625 0.000000 -0.000154 -0.000000 -0.000001 0.000000 -9.103662 -0.042737 -1.864805 108.753414 10.764274 -14.922560 -3.379318 0.000335 -0.000749 109.049871 6.785574 -9.534544 -2.889754 0.000349 0.000693 109.609961 5.645825 -8.062027 -2.638828 -0.000015 0.000943 0.000001 0.000002 -0.000002 -8.076712 -0.486361 -3.805957 103.893434 11.620197 -14.631121 -3.600034 0.000304 -0.003455 104.290876 5.948755 -7.207776 -2.100007 0.000335 -0.005440 103.279659 3.372321 -3.992008 -2.115764 -0.000056 -0.003677 0.000000 -0.000000 -0.000005 4.570446 11.014691 -2.160851 -0.000018 0.000010 -0.000021 10.592355 -0.524534 -2.232282 72.814871 12.611277 -9.317437 27.841852 0.000091 -0.000220 108.148321 -66.017542 83.757093 28.328854 -0.000014 0.000023 0.000021 -0.000090 0.000001 2.466159 -1.576164 2.681877 -13.519811 159.327754 -61.488068 3.217845 -1.871778 1.916394 164.580853 -25.366600 26.859176 2.656123 -1.528670 1.514480 137.828655 -28.085108 58.850474 2.020890 -1.154069 1.115142 0.000004 0.000005 0.000006 9.109379 -0.517850 2.259740 89.417968 -19.635242 19.427925 3.700055 0.000175 -0.000460 86.910578 -12.853187 12.199398 2.850039 0.000190 0.000206 85.953238 -9.615148 8.960535 2.774879 -0.000046 -0.000027 0.000001 -0.000002 0.000000 9.533464 0.000213 -0.000095 90.358936 -19.013850 19.121980 3.700068 0.000197 -0.000384 89.890972 -11.140747 11.117058 2.950053 0.000194 -0.000202 90.993016 -10.894141 11.086362 2.952875 -0.000017 0.000069 -0.000001 -0.000002 -0.000001 9.104589 -0.042852 -1.865224 88.671777 -18.408224 17.995281 3.150047 0.000210 -0.000095 92.558899 -12.289897 12.848725 2.950039 0.000208 -0.000058 94.424483 -10.477452 11.316080 2.644331 0.000032 0.000059 0.000001 0.000001 0.000001 8.077841 -0.486727 -3.806386 77.805554 -19.568057 16.337823 3.600000 0.000181 0.014586 79.970997 -16.650874 14.439196 2.100036 0.000187 0.007544 83.028012 -12.597066 11.591017 2.125489 -0.000010 0.007515 -0.000002 0.000000 0.000003 -8.207786 -6.751667 -1.599560 -0.077001 -0.000003 0.000080 -0.000002 -44.370110 0.345938 0.153719 -0.000000 -0.000000 0.000000 -44.423679 -3.043532 -0.076700 0.000000 -0.000002 -0.000006 -8.728667 10.710559 -0.000009 -0.000000 -0.000000 -0.000001 -0.000679 9.278123 0.000000 -0.000000 -0.000000 8.207792 -6.751710 -1.599556 -0.074518 -0.000003 0.000081 -0.000002 -44.370014 0.346960 0.148822 0.000002 0.000000 -0.000001 -44.423664 -3.044403 -0.074314 0.000000 -0.000002 -0.000004 -8.728671 10.710558 0.000007 -0.000000 -0.000000 0.000000 -0.000680 9.278137 -0.000000 0.000000 -0.000001 
0.000006 104.270477 1.554256 0.000010 0.000003 -0.000113 -0.000005 10.181587 0.131522 0.000001 -0.000003 0.000084 -0.000000 9.893967 -1.470711 0.000001 0.000000 -0.000000 -0.000000 9.220802 -1.370642 0.000000 -0.000000 -0.000000 0.000001 16.740433 -2.049030 0.000000 -0.000000 -0.000000 0.000000 9.617859 1.685014 0.000000 0.000000 0.000000 0.000002 22.037384 7.501101 0.000000 -0.000000 0.000000 -4.569968 11.014880 -2.160881 0.000008 0.000001 -0.000038 -10.592873 -0.524760 -2.231890 69.107724 31.521706 -21.998291 -27.841503 -0.000002 0.000573 -37.238195 109.139326 50.679239 -28.328810 0.000021 0.000034 -0.000322 -0.000042 0.000006 -2.464537 -1.574104 2.682383 9.431232 -145.525390 80.675749 -3.214951 -1.872395 1.924626 127.807306 19.201794 111.773218 -2.654959 -1.527819 1.513047 158.185310 29.185200 -12.331121 -2.018826 -1.152016 1.108059 -0.000002 -0.000001 0.000002 -9.108396 -0.517629 2.260264 126.846571 18.817333 -36.747903 -3.700084 0.000279 0.001609 116.763641 15.165202 -24.363307 -2.850084 0.000362 -0.000164 113.842294 10.235101 -15.655625 -2.772173 -0.000017 -0.000020 -0.000000 -0.000002 0.000001 -9.532595 0.000238 0.000370 122.348687 14.523130 -26.327447 -3.700057 0.000324 0.004069 114.478656 10.988553 -16.857626 -2.950058 0.000344 -0.001722 109.857309 9.448126 -13.416544 -2.946643 0.000000 -0.000151 -0.000003 -0.000001 -0.000002 -9.103683 -0.042760 -1.864734 121.982903 11.856052 -21.135535 -3.379301 0.000321 -0.000715 119.426349 5.336461 -9.152629 -2.889743 0.000369 0.000728 118.613434 4.009635 -6.823792 -2.638807 -0.000012 0.000940 -0.000003 -0.000001 -0.000001 -8.076722 -0.486377 -3.805870 120.160267 10.840004 -18.477450 -3.600012 0.000298 -0.003376 124.597663 3.093400 -5.257517 -2.100001 0.000295 -0.005319 128.200889 1.142179 -1.929198 -2.115793 -0.000026 -0.003677 -0.000003 0.000000 -0.000005 4.570446 11.014691 -2.160851 -0.000018 0.000010 -0.000021 10.592371 -0.524500 -2.232308 72.761841 -0.644620 0.475011 27.841841 0.000081 -0.000194 109.101501 -69.933262 88.975686 28.328856 -0.000028 0.000025 0.000020 -0.000089 -0.000000 2.466181 -1.576136 2.681871 -7.060853 161.277022 -73.770879 3.217852 -1.871810 1.916412 163.806091 -24.703713 29.867393 2.656113 -1.528682 1.514484 136.582227 -28.572484 57.778968 2.020887 -1.154055 1.115144 -0.000000 0.000000 0.000001 9.109382 -0.517861 2.259741 89.080755 -19.325732 19.011251 3.700041 0.000168 -0.000462 87.985315 -12.256757 11.852442 2.850036 0.000221 0.000202 87.195547 -8.857214 8.434332 2.774886 -0.000031 -0.000021 -0.000002 -0.000003 0.000001 9.533461 0.000205 -0.000076 89.637798 -18.753852 18.628725 3.700041 0.000180 -0.000381 90.863878 -10.592594 10.749919 2.950040 0.000197 -0.000208 92.454834 -10.149972 10.594949 2.952857 -0.000016 0.000063 -0.000000 -0.000001 0.000000 9.104599 -0.042854 -1.865214 88.041965 -18.178420 17.579191 3.150025 0.000209 -0.000096 93.446393 -12.238500 12.993337 2.950028 0.000208 -0.000091 95.776082 -10.143733 11.216943 2.644326 0.000032 0.000064 0.000003 -0.000002 -0.000000 8.077831 -0.486734 -3.806410 78.002741 -19.334107 16.202136 3.599997 0.000166 0.014571 79.914579 -16.877114 14.616719 2.100029 0.000184 0.007561 82.934855 -12.387267 11.385264 2.125497 -0.000016 0.007514 -0.000001 0.000000 -0.000001 -8.207786 -6.751667 -1.599560 -0.077001 -0.000003 0.000080 -0.000002 -44.370110 0.345938 0.153719 -0.000000 -0.000000 0.000000 -44.423679 -3.043532 -0.076700 0.000000 -0.000002 -0.000006 -8.728667 10.710559 -0.000009 -0.000000 -0.000000 -0.000001 -0.000679 9.278123 0.000000 -0.000000 -0.000000 8.207792 -6.751710 -1.599556 -0.074518 -0.000003 0.000081 -0.000002 -44.370014 0.346960 0.148822 0.000002 0.000000 -0.000001 -44.423664 -3.044403 -0.074314 0.000000 -0.000002 -0.000004 -8.728671 10.710558 0.000007 -0.000000 -0.000000 0.000000 -0.000680 9.278137 -0.000000 0.000000 -0.000001 
